<?xml version="1.0" standalone="no"?>
<!DOCTYPE svg PUBLIC "-//W3C//DTD SVG 20010904//EN"
 "http://www.w3.org/TR/2001/REC-SVG-20010904/DTD/svg10.dtd">
<svg version="1.0" xmlns="http://www.w3.org/2000/svg"
 width="500.000000pt" height="500.000000pt" viewBox="0 0 500.000000 500.000000"
 preserveAspectRatio="xMidYMid meet">
<metadata>
Created by potrace 1.14, written by Peter Selinger 2001-2017
</metadata>
<g transform="translate(0.000000,500.000000) scale(0.100000,-0.100000)"
fill="#000000" stroke="none">
<path d="M0 4050 c0 -522 2 -950 5 -950 4 0 20 7 36 16 17 8 38 14 47 13 20
-3 72 21 72 33 0 4 11 8 25 8 14 0 25 5 25 12 0 6 3 9 6 5 3 -3 16 -2 28 3 13
4 40 11 60 14 21 3 47 11 57 17 11 6 33 11 50 11 16 1 29 4 29 8 0 31 173 46
206 19 8 -6 14 -8 14 -4 0 4 6 3 13 -3 15 -13 42 1 33 17 -4 6 -4 10 1 9 4 -1
19 4 31 11 13 7 26 10 29 7 4 -3 13 0 21 7 11 8 16 9 19 1 3 -8 19 -7 56 4 29
7 72 15 97 17 27 2 44 8 42 14 -1 6 4 14 12 17 20 8 8 34 -14 34 -11 0 -22 5
-25 11 -5 7 5 8 32 3 21 -4 40 -8 41 -10 5 -4 42 29 42 38 0 16 41 48 60 48
17 0 20 6 18 28 -3 24 0 27 23 24 20 -2 27 2 25 15 0 11 5 17 17 17 9 -1 17 2
17 8 0 5 5 6 10 3 13 -8 13 1 0 26 -12 22 0 25 31 9 27 -15 38 16 13 35 -12 9
-14 14 -6 15 7 0 10 5 6 12 -5 8 0 9 14 6 27 -7 28 0 5 18 -17 13 -17 13 0 14
27 0 46 24 49 60 3 40 14 47 41 23 13 -10 17 -12 11 -3 -20 30 -2 83 34 100
l27 12 -23 18 c-27 22 -27 21 3 54 14 15 25 35 25 45 0 19 24 45 44 47 6 0 19
2 29 2 12 2 17 11 17 31 0 38 19 53 59 45 28 -6 31 -4 24 12 -6 18 -6 18 15 1
17 -16 20 -16 18 -3 -1 8 -5 19 -9 22 -13 13 -7 23 9 17 14 -5 15 -3 4 17 -10
18 -9 24 1 31 8 5 10 9 4 9 -5 0 1 7 13 16 12 8 27 12 34 8 8 -5 9 -2 5 9 -3
10 -2 17 3 17 5 0 7 7 4 15 -6 14 10 19 54 18 11 -1 16 11 13 30 -2 11 12 8
33 -8 23 -18 45 -20 29 -4 -6 6 -9 18 -6 25 4 12 8 12 21 2 13 -11 15 -10 9 5
-6 16 -3 17 30 11 30 -6 35 -4 30 9 -11 28 26 24 70 -8 23 -16 42 -35 42 -41
1 -17 35 -23 48 -9 13 15 7 25 -16 25 -22 1 -61 35 -61 54 0 21 19 30 26 12 3
-9 15 -16 26 -16 10 0 16 5 13 10 -3 6 -2 10 4 10 5 0 13 -5 16 -10 4 -6 14
-9 23 -8 13 2 17 -5 17 -27 0 -16 -4 -33 -9 -36 -4 -4 -5 -21 -1 -38 6 -29 8
-31 20 -15 10 15 16 16 27 6 8 -6 18 -9 21 -5 13 12 7 23 -14 23 -14 0 -19 5
-17 18 4 20 48 30 48 11 0 -7 6 -4 14 7 13 17 12 23 -6 54 -11 19 -14 29 -7
23 20 -20 31 -15 17 6 -7 11 -15 18 -19 16 -3 -3 -15 2 -25 10 -10 8 -14 15
-8 15 6 0 20 8 31 18 l20 17 -23 34 c-13 19 -21 37 -17 40 3 3 8 0 10 -6 6
-18 20 -16 27 3 3 9 -3 29 -15 46 -12 17 -18 33 -13 37 5 3 9 13 9 21 0 8 6
14 12 12 14 -2 18 14 6 21 -5 3 -7 31 -7 64 1 40 -4 64 -15 78 -15 19 -15 19
3 5 30 -24 46 -21 46 9 0 15 5 32 10 37 6 6 14 25 19 42 l10 32 -1170 0 -1169
0 0 -950z"/>
<path d="M2636 4929 c-20 -38 -38 -81 -40 -94 -2 -13 -9 -32 -15 -44 -6 -11
-14 -78 -17 -148 -2 -70 -8 -127 -12 -126 -4 1 -14 4 -22 7 -12 5 -15 -3 -15
-41 1 -27 5 -59 9 -72 7 -19 5 -23 -7 -18 -10 4 -17 -2 -21 -16 -9 -34 -7 -67
4 -67 6 0 10 -7 10 -15 0 -8 7 -16 15 -16 28 -3 33 -4 40 -11 4 -4 16 -3 26 3
13 7 19 6 19 -1 0 -6 5 -8 12 -4 6 4 17 -1 25 -12 15 -20 15 -20 42 25 12 19
31 5 31 -23 0 -13 10 -31 23 -40 12 -9 16 -14 10 -11 -16 8 -17 -7 -1 -23 13
-13 28 -102 17 -102 -4 0 -11 10 -14 21 -5 15 -9 18 -15 9 -6 -9 -9 -9 -15 0
-4 6 -13 9 -21 6 -7 -3 -16 -1 -19 3 -6 11 -45 2 -45 -10 0 -18 -21 -8 -32 16
-13 28 -28 24 -28 -8 -1 -22 -1 -22 -15 -3 -15 19 -15 19 -15 -2 0 -24 -15
-30 -23 -9 -3 6 -6 3 -7 -8 -1 -19 -1 -19 -11 -2 -10 18 -11 18 -24 0 -7 -10
-11 -21 -9 -25 3 -5 1 -8 -4 -8 -6 0 -13 8 -17 18 -6 16 -7 16 -16 0 -5 -10
-17 -14 -29 -11 -23 6 -80 -15 -80 -29 0 -6 -11 -7 -24 -4 -15 4 -26 1 -29 -7
-3 -8 -10 -6 -21 8 -10 13 -15 15 -16 6 0 -8 -6 -11 -16 -7 -13 5 -15 1 -12
-19 5 -22 3 -25 -16 -19 -27 8 -24 5 -28 36 -2 15 -8 31 -13 35 -4 5 -5 2 0
-6 5 -9 4 -12 -3 -8 -5 4 -8 15 -5 25 3 13 -6 28 -27 45 -33 28 -56 36 -44 15
5 -9 3 -9 -9 1 -9 7 -14 17 -12 22 5 8 -12 47 -26 59 -3 3 -8 13 -12 23 -4 11
-12 15 -19 11 -10 -5 -10 -4 -1 6 11 11 17 10 36 -8 25 -24 67 -37 67 -22 0 5
7 6 17 3 11 -4 14 -3 9 6 -5 7 -14 10 -22 7 -20 -7 -33 23 -28 65 5 46 -17 70
-42 45 -13 -13 -14 -19 -4 -31 8 -10 9 -15 2 -15 -6 0 -14 5 -17 10 -11 17
-28 11 -20 -7 5 -15 4 -16 -6 -5 -22 21 -28 13 -17 -24 7 -28 7 -39 -4 -45
-17 -12 -40 -7 -46 9 -2 8 2 10 15 5 10 -3 15 -3 11 1 -3 4 -12 9 -20 10 -7 1
-24 8 -37 15 -23 13 -23 12 -17 -15 4 -16 20 -45 35 -64 15 -19 31 -41 36 -49
8 -15 -50 25 -92 63 -13 11 -23 15 -23 10 0 -4 15 -22 34 -39 33 -30 74 -95
59 -95 -5 0 -19 12 -32 25 -27 29 -54 34 -44 8 6 -17 5 -17 -14 0 -21 19 -41
8 -27 -14 4 -7 -1 -7 -16 1 -13 7 -19 17 -16 26 3 9 1 12 -4 9 -15 -9 -12 -41
5 -55 8 -7 15 -20 15 -29 0 -9 9 -24 20 -34 29 -24 25 -43 -4 -23 -27 17 -46
5 -27 -18 15 -18 -12 -41 -36 -32 -15 6 -15 8 -3 16 12 8 12 10 2 10 -8 0 -16
-9 -19 -20 -3 -11 -12 -20 -19 -20 -17 0 -17 -5 0 -33 7 -12 17 -35 21 -52 l7
-30 -33 30 c-18 17 -29 25 -26 19 4 -7 0 -15 -9 -18 -8 -3 -12 -11 -8 -17 8
-14 -31 -3 -64 18 -22 14 -23 13 -13 -6 6 -11 19 -25 29 -30 9 -6 13 -11 7
-11 -5 0 6 -14 25 -31 20 -18 26 -26 13 -20 -33 17 -53 13 -53 -9 0 -24 -9
-25 -36 -5 -30 22 -42 17 -14 -6 14 -11 19 -18 12 -14 -29 15 -62 15 -62 1 0
-8 4 -17 9 -20 5 -3 19 -22 30 -42 l22 -36 -25 4 c-14 3 -27 0 -29 -6 -3 -7
-9 -6 -21 3 -26 22 -26 10 -1 -42 l23 -49 -26 24 c-14 13 -22 17 -18 11 12
-22 -12 -14 -28 8 -8 12 -19 18 -26 14 -8 -5 -6 -11 7 -22 17 -14 16 -14 -7
-9 l-25 5 23 -19 c12 -10 22 -23 22 -29 0 -6 6 -11 14 -11 8 0 28 -12 43 -26
l28 -26 -32 21 c-17 12 -35 21 -41 21 -5 0 -15 7 -22 15 -7 8 -20 15 -30 15
-28 0 -19 -30 14 -48 25 -13 27 -17 13 -20 -14 -3 -16 -7 -6 -18 9 -11 9 -14
0 -14 -7 0 -9 -5 -5 -11 5 -8 -1 -10 -18 -6 -23 6 -25 4 -23 -28 3 -39 3 -39
-28 -24 l-22 10 21 -18 c11 -10 19 -24 16 -31 -2 -6 0 -12 5 -12 5 0 18 -7 29
-16 18 -14 18 -14 -6 -3 -23 11 -24 11 -11 -4 12 -15 10 -17 -15 -17 -20 0
-25 -3 -15 -9 11 -7 10 -11 -4 -19 -10 -5 -19 -20 -21 -33 -1 -13 -3 -25 -3
-27 -1 -1 -12 5 -25 13 -16 11 -26 13 -31 6 -3 -6 -1 -11 6 -11 7 0 10 -2 7
-5 -3 -3 -17 1 -32 9 -15 7 -37 11 -48 8 -18 -4 -15 -7 18 -20 21 -9 44 -22
50 -30 6 -8 15 -12 21 -9 5 3 10 0 10 -8 0 -8 -10 -15 -21 -16 -12 0 -30 -4
-41 -8 -18 -7 -16 -10 18 -24 21 -9 36 -21 32 -27 -4 -7 -12 -7 -26 0 -12 7
-25 7 -35 2 -14 -8 -12 -10 10 -16 15 -4 24 -11 20 -17 -4 -8 -10 -7 -17 0 -6
6 -17 11 -25 11 -12 0 -12 -2 -1 -16 12 -15 11 -16 -11 -9 -27 9 -31 9 -73 7
-18 -1 -26 -6 -21 -13 4 -7 20 -9 40 -6 22 4 37 1 45 -9 6 -8 18 -14 25 -14 8
0 14 -4 14 -9 0 -5 -9 -7 -20 -4 -11 3 -20 1 -20 -5 0 -10 -36 -8 -66 2 -6 2
-17 0 -25 -4 -14 -10 -8 -13 36 -23 14 -3 12 -5 -8 -6 -17 -1 -26 -5 -22 -11
4 -7 -3 -8 -22 -4 -24 6 -26 5 -15 -8 16 -19 -2 -28 -56 -28 -34 0 -35 -1 -16
-15 10 -8 28 -15 39 -15 11 0 31 -8 45 -16 l25 -15 -25 6 c-14 3 -43 7 -65 9
-22 2 -29 1 -17 -1 22 -4 23 -5 6 -18 -16 -11 -12 -14 40 -25 32 -6 56 -13 54
-15 -2 -2 -34 0 -73 4 -38 4 -82 4 -97 0 -14 -4 -29 -4 -32 -1 -4 3 -5 -5 -4
-19 4 -34 16 -39 74 -33 28 4 58 3 67 -2 11 -6 0 -9 -35 -11 -27 0 -54 -5 -60
-11 -6 -6 0 -8 16 -5 14 3 26 3 26 0 0 -13 -33 -37 -51 -37 -11 0 -27 -7 -35
-15 -9 -8 -24 -15 -35 -15 -10 0 -19 -5 -19 -10 0 -6 11 -8 25 -4 30 8 33 -9
6 -33 -11 -9 -17 -21 -14 -26 3 -6 1 -7 -5 -3 -7 4 -12 2 -12 -3 0 -6 -10 -11
-22 -11 -21 0 -21 0 -2 -14 10 -8 16 -18 12 -21 -4 -4 -3 -16 3 -26 6 -13 6
-19 -1 -19 -5 0 -10 -4 -10 -10 0 -5 7 -10 15 -10 8 0 15 -3 15 -6 0 -10 -54
-49 -70 -50 -35 -2 -40 -5 -40 -19 0 -8 -6 -15 -14 -15 -7 0 -19 -7 -26 -15
-10 -12 -9 -15 5 -15 11 0 15 -5 11 -15 -4 -10 2 -19 17 -24 l22 -8 -23 -7
c-12 -4 -22 -12 -22 -17 0 -6 -3 -8 -7 -6 -15 9 -53 -12 -53 -28 0 -10 -5 -13
-12 -9 -7 4 -8 3 -4 -4 4 -7 17 -12 29 -12 13 0 17 -4 11 -9 -8 -9 -77 -16
-99 -10 -23 5 -31 7 -45 8 -10 1 -8 6 8 17 32 22 28 37 -8 29 -16 -4 -30 -3
-30 0 0 4 19 25 43 47 32 30 37 38 20 33 -32 -9 -30 18 2 43 24 19 24 32 -2
32 -8 0 -11 -5 -7 -12 6 -10 4 -10 -7 0 -7 6 -27 12 -43 13 l-31 0 25 11 c14
6 29 10 34 9 6 -1 21 0 34 4 19 5 22 8 12 20 -10 12 -9 15 6 15 19 1 54 22 54
34 0 3 -10 6 -22 6 -20 1 -21 2 -7 13 20 16 31 46 22 60 -12 20 -10 49 4 54 7
3 13 11 13 18 0 23 20 28 34 10 7 -10 19 -15 27 -12 10 4 9 6 -4 6 -10 1 -16
5 -12 10 3 5 -4 12 -15 16 -24 7 -26 23 -5 31 8 4 12 10 9 15 -3 5 -10 6 -16
3 -7 -4 -8 -2 -4 4 4 7 1 12 -6 13 -7 0 -3 5 9 11 24 12 38 41 28 58 -3 5 0
11 7 12 13 1 24 3 43 8 6 2 16 4 22 4 7 1 12 6 10 11 -1 5 -8 8 -16 7 -7 -2
-10 1 -6 7 4 7 -1 9 -12 5 -10 -3 -2 4 17 15 l35 20 -30 1 c-29 1 -29 1 -8 13
16 9 20 16 13 27 -16 24 -11 40 11 40 11 0 17 4 14 10 -3 6 0 10 7 10 7 0 2 8
-12 17 l-24 17 30 13 c16 6 22 13 14 13 -10 1 -9 4 5 10 19 8 18 9 -4 9 -23 1
-23 2 -7 14 17 12 17 14 0 28 -13 11 -18 11 -21 2 -3 -7 -14 -13 -26 -12 l-22
0 22 9 c16 6 20 14 16 31 -6 20 -4 21 38 14 38 -7 42 -6 31 7 -10 12 -8 19 8
38 19 21 19 25 4 41 -15 17 -17 16 -35 -2 -10 -10 -29 -19 -42 -19 -12 0 -17
-4 -12 -8 6 -4 11 -15 13 -24 2 -13 -4 -16 -30 -15 -18 1 -36 6 -40 12 -5 6
-12 5 -20 -3 -6 -6 -30 -12 -53 -12 -26 0 -53 -8 -75 -23 -44 -29 -70 -39 -70
-27 0 6 -5 10 -11 10 -5 0 -8 -4 -5 -9 4 -5 -3 -7 -14 -4 -11 3 -20 1 -20 -4
0 -5 -6 -10 -12 -11 -33 -2 -76 -11 -101 -21 -15 -6 -27 -8 -27 -5 0 3 -7 -2
-16 -10 -8 -9 -19 -14 -24 -11 -4 3 -10 -6 -12 -20 -3 -13 0 -26 6 -28 17 -6
2 -17 -28 -19 -24 -2 -72 -38 -51 -38 4 0 -2 -9 -15 -20 -13 -11 -29 -20 -37
-20 -7 0 -13 -4 -13 -9 0 -5 -6 -9 -13 -8 -36 1 -58 -4 -52 -13 3 -5 -3 -15
-15 -22 -20 -13 -20 -20 -20 -600 0 -324 4 -588 8 -588 11 0 42 34 42 46 0 5
36 36 80 68 81 59 92 70 65 60 -13 -5 -45 16 -45 29 0 3 11 8 25 11 22 6 27
12 24 32 0 4 5 11 13 16 9 6 6 7 -9 3 -12 -3 -24 -2 -27 3 -6 10 37 32 74 37
35 5 80 24 58 24 -11 1 -15 6 -12 16 3 8 9 14 12 13 4 -1 24 6 44 15 21 10 42
17 48 17 5 0 10 4 10 8 0 5 10 14 23 20 17 8 18 11 5 11 -27 1 -10 31 17 31
13 0 26 4 29 8 3 5 23 9 45 10 21 1 50 6 63 11 13 5 45 8 70 8 25 -1 44 1 41
6 -2 4 7 7 20 7 19 0 28 -8 36 -30 5 -16 7 -30 4 -30 -4 0 1 -6 11 -13 18 -13
17 -16 -18 -51 -20 -21 -36 -42 -36 -47 0 -5 -7 -9 -15 -9 -8 0 -15 -6 -15
-13 0 -11 -24 -33 -64 -59 -8 -6 -7 -10 2 -17 10 -6 4 -12 -20 -22 -39 -16
-120 -88 -113 -100 3 -4 -21 -35 -54 -69 -32 -33 -69 -80 -81 -104 -11 -24
-28 -50 -37 -58 -43 -36 -84 -211 -62 -265 5 -13 13 -33 19 -45 5 -13 14 -36
20 -52 9 -23 13 -26 25 -16 22 19 18 0 -6 -26 -19 -21 -37 -95 -22 -93 29 5
53 -3 53 -17 0 -13 3 -14 15 -4 21 18 35 3 28 -30 -4 -23 -1 -31 13 -36 11 -4
27 -16 38 -26 10 -11 24 -17 32 -14 8 3 20 -3 26 -14 7 -11 19 -20 26 -20 15
0 75 -39 80 -52 2 -4 13 -8 23 -8 11 0 18 -4 15 -8 -2 -4 3 -8 12 -8 38 -2 78
-15 102 -33 17 -12 38 -17 59 -15 62 7 84 -52 26 -71 -17 -5 -44 -19 -60 -31
-41 -28 -117 -24 -153 8 -17 16 -26 19 -29 11 -6 -16 -40 -17 -45 -2 -2 6 -27
14 -56 17 -28 2 -50 7 -48 11 6 9 -73 6 -109 -4 -27 -8 -29 -7 -16 8 12 15 10
17 -19 17 -27 0 -32 3 -27 20 7 26 7 26 -38 -10 -46 -36 -67 -39 -35 -5 l23
25 -34 2 c-19 1 -42 2 -52 1 -15 0 -15 2 -2 17 20 22 19 28 -7 32 -21 3 -21 3
3 26 13 12 33 29 44 36 19 14 18 15 -10 12 -16 -2 -28 -7 -25 -11 5 -7 -71
-37 -79 -30 -2 3 1 11 8 19 9 11 7 15 -10 19 -11 3 -18 10 -15 16 3 5 -2 11
-11 13 -16 3 -16 6 5 23 28 24 28 39 1 32 -15 -4 -19 -2 -15 9 4 11 1 14 -12
12 -16 -3 -17 -36 -20 -496 l-2 -492 2500 0 2500 0 0 1652 0 1651 -22 -19
c-13 -10 -41 -34 -63 -54 -23 -19 -12 -6 22 29 l63 63 0 94 c0 99 0 99 -48 97
-7 -1 -11 5 -8 13 3 7 -4 20 -15 28 -18 12 -19 15 -4 30 9 9 22 16 29 16 8 0
19 6 25 14 10 11 4 12 -35 5 -26 -5 -50 -7 -52 -4 -3 3 1 5 8 5 9 0 7 5 -6 15
-19 15 -19 15 1 31 19 16 18 16 -23 11 -32 -4 -44 -1 -51 11 -8 14 -13 15 -30
5 -19 -12 -20 -11 -11 12 5 14 7 25 3 25 -4 0 2 7 13 16 18 15 18 15 -3 10
-13 -4 -32 -9 -43 -12 -29 -8 -25 1 18 43 l37 37 -37 -23 c-32 -19 -37 -20
-31 -5 4 11 3 15 -4 11 -6 -4 -13 -1 -15 5 -3 8 -9 4 -17 -10 -6 -12 -16 -22
-22 -22 -6 0 -7 5 -4 10 3 6 -3 10 -14 10 -18 0 -19 4 -11 24 9 23 7 24 -24
19 -21 -3 -36 -1 -41 7 -6 9 -4 11 4 5 9 -5 12 0 9 16 -4 31 -23 34 -47 10
-27 -27 -36 -27 -18 0 25 35 11 56 -34 54 -21 -1 -36 1 -34 6 10 16 -28 41
-54 35 -22 -5 -24 -4 -10 6 25 21 31 48 11 49 -9 1 -20 1 -24 0 -4 0 -4 7 -1
16 5 13 2 15 -20 9 -25 -6 -26 -5 -20 25 6 32 6 32 -30 26 -28 -4 -35 -3 -30
9 5 13 -14 20 -41 15 -25 -5 -55 10 -50 24 4 9 0 15 -10 15 -9 0 -16 7 -16 15
0 10 -7 15 -17 13 -12 -2 -19 5 -21 20 -3 20 -8 23 -29 17 -20 -5 -24 -3 -19
9 3 9 9 23 12 32 5 12 1 14 -17 9 -13 -3 -38 -7 -55 -9 -17 -2 -37 -7 -44 -11
-9 -6 -10 -2 -5 16 7 21 6 22 -8 11 -13 -11 -17 -10 -25 4 -8 15 -14 16 -34 7
-24 -10 -68 1 -68 18 0 16 -34 49 -51 49 -9 0 -20 7 -23 16 -3 9 -13 14 -21
10 -17 -6 -31 12 -27 36 2 9 -6 22 -17 28 -15 8 -21 21 -21 45 0 19 -4 35 -8
35 -5 0 -15 19 -22 41 -8 23 -22 46 -32 53 -10 6 -18 21 -18 33 0 12 -4 24 -9
28 -5 3 -12 19 -16 35 -4 16 -24 55 -45 87 -22 31 -37 60 -34 65 3 4 0 8 -5 8
-6 0 -11 4 -11 10 0 5 -12 30 -27 55 l-28 45 -376 0 -377 0 -36 -71z m284
-635 c0 -24 5 -44 10 -44 6 0 10 -14 10 -31 0 -20 4 -29 13 -26 12 4 13 17 1
76 -5 24 -3 32 5 27 6 -4 9 -12 6 -17 -4 -5 -1 -17 4 -26 9 -16 10 -16 11 4 0
12 5 25 11 28 6 4 10 1 8 -6 -4 -35 3 -42 17 -16 15 28 38 29 27 2 -3 -8 -2
-15 1 -15 4 0 11 12 17 26 5 15 12 24 15 21 11 -11 -8 -114 -27 -137 l-19 -25
-1 50 -1 50 -10 -40 c-5 -22 -10 -55 -10 -72 1 -37 -17 -44 -25 -12 -6 21 -7
21 -20 4 -12 -17 -13 -16 -14 16 -1 19 0 39 1 44 1 6 -2 7 -6 2 -4 -4 -9 -18
-11 -30 -2 -12 -5 -27 -7 -33 -6 -15 -56 -6 -57 10 0 16 -8 78 -12 96 -4 24
-18 41 -30 37 -6 -2 -9 -31 -8 -75 1 -46 -2 -72 -8 -72 -7 0 -11 32 -11 86 0
54 4 83 10 79 6 -4 10 10 10 35 0 38 1 40 27 36 14 -3 31 -11 36 -18 6 -10 7
-9 4 4 -7 22 3 30 20 17 7 -7 13 -31 13 -55z m-131 49 c0 -5 -4 -17 -9 -28 -8
-18 -9 -17 -9 8 -1 15 4 27 9 27 6 0 10 -3 9 -7z m636 -62 c-3 -21 -12 -58
-19 -82 l-14 -44 3 66 c1 40 7 73 16 82 20 23 21 21 14 -22z m-1375 -22 c0 -6
-4 -7 -10 -4 -5 3 -10 11 -10 16 0 6 5 7 10 4 6 -3 10 -11 10 -16z m1240 -53
c0 -13 -9 -34 -21 -47 l-21 -24 16 27 c9 15 16 36 16 48 0 11 2 20 5 20 3 0 5
-11 5 -24z m73 -8 c-6 -7 -12 -25 -15 -40 -5 -25 -3 -26 21 -17 24 10 24 9 8
-9 -19 -21 -23 -37 -6 -26 7 4 26 9 42 11 l31 3 -23 -21 c-22 -21 -24 -46 -2
-41 7 1 10 -2 6 -8 -12 -19 7 -10 26 13 10 12 18 17 19 11 0 -6 -7 -17 -16
-24 -8 -8 -28 -40 -45 -73 -16 -33 -23 -54 -15 -48 8 7 19 10 25 7 5 -3 12 1
15 10 4 9 9 15 11 12 3 -3 -1 -17 -8 -31 -8 -15 -17 -24 -20 -20 -4 3 -11 -6
-16 -20 -6 -14 -17 -29 -25 -34 -8 -4 -26 -31 -41 -60 -29 -58 -45 -74 -45
-44 0 11 -5 23 -10 26 -6 4 -8 16 -4 28 6 22 6 22 -19 -2 -14 -13 -28 -31 -30
-40 -3 -9 -3 -2 -2 14 2 17 9 44 16 60 7 17 13 34 13 38 1 4 6 11 12 15 7 4
14 33 17 65 3 32 16 75 28 97 13 22 20 42 17 46 -4 3 -9 -3 -12 -13 -7 -21
-56 -59 -56 -43 0 5 5 10 10 10 6 0 10 5 10 12 0 6 8 20 17 30 14 16 15 21 4
27 -10 7 -11 13 -2 27 10 18 10 18 11 -1 1 -17 3 -17 11 5 10 24 38 60 47 60
2 0 0 -6 -5 -12z m-136 -30 c-3 -8 -6 -5 -6 6 -1 11 2 17 5 13 3 -3 4 -12 1
-19z m-1107 -68 c0 -5 -7 -7 -15 -4 -8 4 -15 8 -15 10 0 2 7 4 15 4 8 0 15 -4
15 -10z m757 -22 c-3 -8 -6 -5 -6 6 -1 11 2 17 5 13 3 -3 4 -12 1 -19z m814
-7 c-27 -37 -26 -45 2 -29 28 15 47 19 47 8 0 -11 -62 -70 -73 -70 -15 0 -77
-50 -77 -62 0 -5 7 -8 15 -4 18 7 18 4 3 -29 -6 -14 -16 -25 -21 -25 -5 0 -4
7 3 15 7 8 9 15 5 15 -12 0 -55 -50 -55 -63 0 -9 3 -8 8 1 5 7 15 10 23 7 19
-7 190 155 213 202 9 17 20 34 25 37 14 9 -29 -66 -67 -119 -27 -36 -30 -45
-16 -45 16 0 15 -2 -2 -21 -19 -22 -19 -22 6 -14 14 4 29 11 35 16 18 17 28 9
11 -10 -17 -19 -17 -19 25 -4 24 8 48 17 53 21 23 14 33 10 28 -11 -4 -16 -2
-19 11 -14 16 6 16 4 2 -17 -14 -21 -14 -24 0 -30 9 -3 25 -1 36 4 27 15 24
23 -3 10 -22 -11 -22 -10 -4 4 10 9 22 13 27 11 4 -3 10 1 12 7 4 9 6 8 6 -2
1 -9 -6 -26 -15 -39 -16 -22 -16 -23 5 -12 12 7 43 32 69 56 26 25 50 45 55
45 13 0 -15 -34 -59 -71 l-43 -37 39 2 c21 0 36 4 34 8 -2 4 0 10 6 13 6 4 9
1 8 -7 -4 -20 43 -10 72 15 l25 22 -20 -25 c-11 -14 -31 -37 -44 -52 -14 -16
-19 -28 -13 -28 7 0 12 5 12 10 0 6 5 10 11 10 5 0 7 -4 4 -10 -3 -5 -2 -10 3
-10 14 0 59 39 46 40 -5 0 -15 -5 -22 -12 -6 -6 -14 -9 -17 -6 -3 3 13 17 35
32 22 14 40 22 40 17 0 -5 -5 -11 -12 -13 -14 -5 -20 -38 -7 -38 6 0 7 -4 4
-10 -9 -15 2 -12 33 7 l27 17 -25 -28 c-24 -28 -24 -28 -2 -17 12 7 26 10 31
7 4 -3 23 6 41 19 50 37 55 30 15 -21 -42 -55 -45 -73 -9 -49 30 19 99 31 89
15 -3 -5 -2 -10 4 -10 5 0 12 4 16 9 3 6 14 9 26 8 17 -1 14 -6 -18 -33 -21
-18 -41 -30 -45 -28 -10 6 -38 -7 -38 -18 0 -5 6 -6 13 -1 11 7 38 11 94 14
12 1 24 7 27 15 3 8 13 14 23 14 13 0 2 -15 -35 -50 -30 -28 -50 -50 -47 -50
4 0 1 -8 -6 -17 -13 -16 -13 -16 11 0 30 21 64 24 35 4 -25 -19 -6 -29 33 -18
17 5 40 7 52 4 11 -3 28 1 38 8 14 11 15 11 5 -1 -19 -20 -16 -28 10 -25 12 1
30 -6 40 -17 9 -10 13 -18 9 -18 -4 0 -8 -9 -8 -20 0 -23 2 -22 50 53 20 31
39 57 42 57 2 0 -11 -25 -31 -55 -32 -50 -45 -78 -29 -62 3 3 12 0 19 -6 11
-10 10 -15 -2 -29 -13 -14 -13 -18 -3 -18 8 0 2 -13 -15 -30 -16 -16 -25 -30
-21 -30 5 0 3 -7 -4 -15 -11 -13 -8 -13 21 -4 19 7 38 16 44 20 5 5 27 9 50 8
27 -1 33 -3 20 -7 -11 -4 -31 -17 -45 -30 -14 -12 -43 -39 -65 -58 -40 -36
-33 -37 18 -2 38 27 34 5 -10 -50 -21 -25 -31 -43 -23 -38 8 4 5 -1 -7 -10
-31 -23 -29 -40 2 -20 14 9 25 12 25 6 0 -6 -11 -16 -25 -22 -14 -6 -28 -22
-31 -35 -4 -13 -15 -28 -25 -34 -11 -5 -19 -15 -19 -22 -1 -7 -30 -34 -65 -62
-35 -27 -64 -53 -64 -57 -1 -5 -9 -8 -18 -8 -9 0 -25 -8 -36 -17 -18 -17 -18
-17 -6 12 7 17 25 46 38 65 l25 35 -31 -29 c-34 -31 -58 -27 -47 7 5 16 -4 11
-30 -18 -26 -28 -32 -32 -20 -12 9 15 12 27 6 27 -23 0 -321 -442 -303 -448 8
-3 4 -9 -10 -16 -28 -14 -59 -59 -38 -54 8 2 13 -3 11 -10 -1 -8 2 -11 8 -7 6
3 8 10 5 15 -6 10 29 32 38 24 3 -3 12 -2 19 2 7 5 22 10 33 11 14 2 8 -5 -16
-21 -43 -29 -53 -50 -38 -78 8 -15 7 -24 -7 -39 -17 -18 -9 -26 11 -11 6 4 36
39 67 77 31 39 78 90 105 115 38 36 36 33 -13 -20 -33 -36 -81 -93 -107 -127
-41 -53 -45 -63 -31 -71 14 -8 14 -11 -7 -31 -20 -19 -21 -21 -4 -21 17 0 17
-1 -1 -22 -22 -25 -2 -16 36 16 23 20 24 20 10 1 -8 -11 -25 -31 -37 -44 -13
-13 -21 -26 -18 -29 3 -3 34 21 68 54 35 33 26 22 -20 -26 -46 -47 -83 -91
-83 -97 0 -7 -9 -17 -21 -23 -11 -7 -18 -14 -15 -17 3 -3 17 2 31 11 26 17 26
17 13 -6 -7 -12 -20 -28 -28 -35 -13 -11 -12 -12 5 -13 13 -1 8 -5 -14 -13
-19 -7 -36 -18 -39 -25 -3 -11 0 -12 16 -3 27 14 29 14 29 -5 0 -8 -17 -27
-38 -42 -42 -29 -51 -47 -19 -39 11 3 20 1 20 -4 0 -5 5 -9 11 -9 5 0 8 4 5 9
-3 4 12 16 34 26 22 10 46 25 52 33 11 13 8 14 -22 9 l-35 -6 38 16 c20 8 37
19 37 24 0 4 -16 1 -35 -7 -43 -17 -46 -17 -39 0 6 16 27 26 67 31 15 2 37 11
49 20 13 8 29 15 38 15 8 -1 -2 -10 -22 -20 -46 -25 -54 -37 -28 -45 12 -4 17
-11 13 -18 -4 -7 1 -6 10 2 15 12 21 9 18 -11 0 -4 7 -4 17 -1 15 6 15 5 3
-10 -15 -18 -3 -23 17 -7 9 7 9 7 2 -2 -15 -18 -13 -24 15 -36 16 -7 23 -17
19 -27 -3 -8 -1 -15 6 -15 6 0 8 -5 3 -12 -4 -7 -9 -21 -10 -32 -2 -14 1 -17
14 -12 15 6 15 4 -2 -14 -18 -20 -18 -20 11 -20 l29 -1 -26 -14 c-15 -8 -29
-22 -33 -30 -3 -9 -2 -14 2 -12 4 3 12 0 17 -7 17 -19 14 -49 -6 -67 -19 -16
-19 -18 -3 -27 15 -8 15 -10 -2 -23 -21 -15 -27 -58 -10 -60 6 0 -2 -7 -19
-14 -16 -8 -26 -14 -22 -15 17 -1 -15 -41 -46 -56 -18 -9 -35 -22 -39 -28 -5
-8 -8 -7 -8 2 0 6 -7 12 -16 12 -14 0 -14 -3 -4 -15 11 -14 10 -14 -16 -5 -16
6 -31 10 -34 9 -17 -9 -80 -15 -80 -8 0 5 -7 6 -15 3 -21 -8 -10 67 13 85 16
13 16 13 0 8 -10 -4 -18 -2 -18 3 0 6 7 10 15 10 19 0 19 14 1 29 -10 9 -16
56 -7 56 3 0 7 24 16 83 3 23 10 42 16 42 5 0 9 5 9 11 0 5 14 23 32 39 24 22
27 28 11 24 -14 -4 -20 -1 -20 13 0 20 20 43 37 43 6 0 8 5 4 11 -6 11 -29 9
-69 -6 -16 -5 -17 -5 -5 4 13 9 13 11 -2 11 -10 0 -22 -8 -27 -17 -5 -10 -35
-31 -66 -47 -42 -21 -53 -31 -44 -38 10 -6 7 -8 -11 -6 -14 2 -25 10 -26 18
-2 29 -4 31 -24 20 -15 -8 -21 -7 -29 7 -13 25 -12 36 6 56 31 34 -8 18 -45
-19 -26 -26 -37 -32 -43 -22 -5 7 -4 17 1 22 15 15 12 36 -5 36 -8 0 -15 -6
-15 -13 0 -7 -7 -22 -15 -33 -14 -18 -14 -17 -5 9 9 25 8 27 -16 27 -14 0 -22
4 -19 10 9 14 -8 13 -23 -2 -8 -8 -10 -5 -7 13 4 22 1 25 -28 24 -31 -1 -33 1
-30 24 l4 26 -16 -28 c-11 -18 -22 -27 -31 -23 -9 3 -24 1 -35 -4 -16 -9 -19
-7 -19 12 0 20 -1 21 -13 4 -11 -15 -19 -16 -48 -9 -19 6 -42 9 -51 7 -10 -1
-18 4 -18 13 0 12 -2 12 -16 -1 -19 -20 -25 -20 -18 -2 3 8 1 17 -4 20 -6 3
-13 -1 -16 -9 -5 -13 -10 -14 -27 -4 -12 6 -19 7 -15 1 8 -13 -24 -26 -36 -14
-4 4 -24 6 -44 4 -25 -3 -34 -8 -30 -18 3 -8 0 -14 -6 -14 -7 0 -6 -5 2 -15
11 -13 10 -14 -5 -9 -14 6 -16 4 -10 -7 7 -11 5 -11 -10 1 -11 9 -16 10 -11 3
9 -16 1 -16 -24 -3 -13 7 -19 6 -24 -5 -4 -11 -13 -14 -30 -9 -13 3 -27 1 -30
-5 -4 -5 -14 -7 -24 -4 -15 6 -15 5 -3 -10 16 -20 14 -20 -27 -6 -18 6 -30 15
-27 19 6 10 -14 24 -35 25 -8 0 -14 8 -14 18 1 9 -3 17 -10 16 -20 -4 -61 19
-98 55 -21 20 -38 39 -38 43 0 4 5 2 12 -5 27 -27 28 -10 2 25 -15 20 -22 33
-16 29 7 -4 12 -3 12 3 0 5 -9 13 -20 16 -21 7 -48 45 -31 45 5 0 21 -4 35
-10 14 -5 26 -7 26 -3 0 12 -33 43 -47 43 -7 0 -13 4 -13 9 0 5 -13 22 -28 38
-34 34 -38 62 -8 56 21 -4 21 -4 2 11 -11 9 -16 17 -10 17 41 6 71 3 82 -8 16
-15 38 -17 47 -3 3 6 0 10 -8 10 -8 0 -21 7 -28 17 -13 15 -12 15 11 4 23 -11
22 -9 -5 15 -16 14 -25 23 -19 20 13 -6 27 20 19 34 -3 5 7 8 22 7 22 -2 27 2
25 16 -3 20 2 21 30 6 11 -6 18 -7 14 -1 -3 5 -22 17 -42 27 -19 9 -33 19 -30
22 2 3 18 -2 34 -10 18 -9 35 -11 43 -6 8 5 9 9 4 9 -6 0 -29 18 -53 40 -23
22 -46 40 -51 40 -5 0 -11 9 -14 20 -5 21 -9 23 -72 39 -22 6 -53 22 -70 37
-16 14 -23 22 -15 18 8 -4 23 -14 33 -22 19 -17 23 -3 5 17 -11 11 -10 13 5 8
24 -9 21 6 -8 33 -14 13 -25 29 -25 35 0 6 -5 16 -12 23 -6 6 -13 21 -15 32
-2 15 5 11 33 -18 28 -29 33 -32 23 -12 -6 14 -19 34 -29 45 -10 11 -26 34
-36 50 -18 29 -18 30 0 15 19 -15 19 -14 3 17 -20 38 -21 47 -5 37 8 -5 9 -2
5 10 -12 30 13 6 27 -27 11 -24 15 -27 15 -12 1 11 -6 33 -14 49 l-15 28 37
-28 c36 -26 37 -26 16 -3 -27 30 -33 59 -8 39 14 -11 14 -10 5 15 -6 15 -8 30
-6 33 3 3 10 -7 15 -22 6 -14 13 -26 16 -26 8 0 -8 65 -18 69 -5 2 -3 7 4 12
7 4 13 24 12 46 l-1 38 14 -28 c18 -34 28 -35 22 -2 l-5 25 24 -27 c15 -16 23
-34 21 -47 -3 -12 1 -27 8 -34 11 -10 13 -3 9 35 -4 42 -3 46 9 31 20 -27 28
-21 21 15 l-7 32 29 -40 c17 -22 32 -47 36 -55 3 -9 6 -5 6 11 1 14 -2 29 -5
32 -4 4 -8 23 -9 44 -2 21 -1 31 2 23 3 -8 13 -31 23 -52 10 -20 16 -38 13
-41 -2 -3 0 -14 7 -24 10 -16 10 -15 4 6 -5 18 -3 22 7 15 7 -4 3 9 -9 30 -25
43 -29 61 -6 28 18 -27 34 -21 28 11 -2 12 1 7 8 -10 6 -18 15 -33 20 -33 5 0
7 4 4 9 -7 11 20 34 32 27 13 -8 35 20 27 34 -3 6 -10 8 -14 6 -4 -3 -8 0 -8
7 0 7 -3 35 -7 62 l-6 50 25 -30 c25 -30 33 -51 15 -40 -5 3 -10 2 -10 -3 0
-5 9 -12 20 -15 13 -3 18 -1 13 6 -5 9 -3 9 8 0 11 -9 18 -8 33 2 16 13 17 19
8 57 -6 23 -9 44 -7 46 2 3 7 -7 11 -22 3 -14 10 -23 15 -20 5 3 9 -6 9 -20 0
-14 5 -28 10 -31 6 -3 10 2 10 13 0 28 11 34 26 14 12 -15 14 -14 20 16 9 43
27 41 22 -3 -2 -22 0 -34 6 -32 6 3 10 14 8 27 -2 18 0 20 12 11 11 -9 15 -9
19 1 3 7 5 4 5 -7 -3 -68 14 -84 25 -25 4 17 12 29 19 28 7 -2 15 12 19 32 6
33 6 33 8 -12 0 -27 6 -48 11 -48 6 0 10 -6 10 -12 0 -7 7 -21 14 -30 12 -17
15 -16 40 7 15 14 24 30 21 36 -11 17 -17 196 -6 180 12 -18 26 86 18 128 -4
17 0 36 8 47 8 11 15 28 15 40 0 11 9 29 19 38 19 17 20 17 27 -21 4 -21 11
-46 15 -55 11 -21 18 -64 24 -147 2 -35 6 -65 8 -68 12 -11 19 170 9 210 -10
37 -9 40 4 23 13 -18 14 -18 14 -2 0 10 8 30 19 44 10 15 22 37 25 50 4 12 11
20 15 17 15 -9 71 66 71 95 0 6 -10 3 -24 -7 -13 -10 -23 -22 -21 -28 1 -5 0
-6 -3 -2 -2 5 -12 1 -22 -8 -16 -15 -17 -14 -17 9 0 16 9 31 23 41 30 20 143
130 173 170 12 17 20 24 16 18 -8 -16 11 -17 21 -2 3 6 1 15 -5 19 -9 5 -5 16
14 38 34 40 43 42 16 3z m-101 -14 c0 -2 -10 -12 -22 -23 l-23 -19 19 23 c18
21 26 27 26 19z m-139 -80 c-13 -13 -15 1 -4 30 7 17 8 17 11 -1 2 -10 -1 -23
-7 -29z m-410 -70 c-13 -13 -15 1 -4 30 7 17 8 17 11 -1 2 -10 -1 -23 -7 -29z
m-37 18 c-4 -8 -8 -15 -10 -15 -2 0 -4 7 -4 15 0 8 4 15 10 15 5 0 7 -7 4 -15z
m82 -65 c0 -33 -3 -60 -8 -60 -4 0 -9 8 -9 18 -1 16 -2 16 -6 0 -2 -10 -8 -18
-13 -18 -14 0 -2 69 18 95 9 14 17 25 17 25 0 0 1 -27 1 -60z m-96 -8 c-15
-26 -37 -52 -43 -52 -3 0 -5 9 -4 19 0 11 4 18 8 16 3 -3 11 7 18 21 6 14 16
22 21 19 7 -4 7 -12 0 -23z m136 -9 c-11 -63 -17 -77 -26 -63 -4 7 -3 26 3 44
5 17 11 37 13 44 8 29 16 8 10 -25z m-110 -48 c-6 -36 -13 -65 -17 -65 -4 0
-5 -10 -3 -22 l5 -23 -12 23 c-9 16 -9 28 -1 46 6 13 8 34 5 45 -3 13 1 29 12
41 10 11 19 20 19 20 1 0 -3 -29 -8 -65z m204 30 c0 -8 -4 -15 -10 -15 -5 0
-7 7 -4 15 4 8 8 15 10 15 2 0 4 -7 4 -15z m-1585 -75 c3 -5 1 -10 -4 -10 -6
0 -11 5 -11 10 0 6 2 10 4 10 3 0 8 -4 11 -10z m1315 -21 c0 -11 -4 -17 -10
-14 -5 3 -10 13 -10 21 0 8 5 14 10 14 6 0 10 -9 10 -21z m464 6 c-4 -8 -8
-15 -10 -15 -2 0 -4 7 -4 15 0 8 4 15 10 15 5 0 7 -7 4 -15z m-284 -15 c0 -5
-2 -10 -4 -10 -3 0 -8 5 -11 10 -3 6 -1 10 4 10 6 0 11 -4 11 -10z m107 -42
c-3 -8 -6 -5 -6 6 -1 11 2 17 5 13 3 -3 4 -12 1 -19z m-1581 -4 c18 -14 18
-14 -6 -3 -31 14 -36 19 -24 19 6 0 19 -7 30 -16z m-35 -30 c21 -24 22 -26 3
-16 -25 13 -50 42 -37 42 5 0 20 -12 34 -26z m1581 -6 c-8 -8 -9 -4 -5 13 4
13 8 18 11 10 2 -7 -1 -18 -6 -23z m58 -20 c0 -5 -4 -8 -10 -8 -5 0 -10 10
-10 23 0 18 2 19 10 7 5 -8 10 -18 10 -22z m-65 -40 c-4 -24 -11 -47 -15 -51
-4 -5 -4 11 1 35 4 24 8 46 9 51 0 4 3 7 6 7 3 0 3 -19 -1 -42z m-582 -59 c-8
-8 -13 -7 -18 2 -5 8 -4 10 3 5 7 -4 12 -2 12 5 0 7 3 9 7 6 4 -4 2 -12 -4
-18z m557 -34 c5 -21 5 -34 1 -29 -10 10 -24 80 -15 72 3 -4 10 -23 14 -43z
m-73 -8 c2 -21 1 -21 -13 -3 -17 24 -18 37 -1 30 7 -2 13 -15 14 -27z m-246
-29 c11 -21 11 -22 -4 -9 -10 7 -17 17 -17 22 0 15 9 10 21 -13z m357 -63 c-3
-3 -9 2 -12 12 -6 14 -5 15 5 6 7 -7 10 -15 7 -18z m-1642 -83 c-4 -3 -14 2
-24 12 -16 18 -16 18 6 6 13 -6 21 -14 18 -18z m1624 8 c0 -11 -4 -20 -10 -20
-5 0 -10 9 -10 20 0 11 5 20 10 20 6 0 10 -9 10 -20z m-255 -10 c3 -5 1 -10
-4 -10 -6 0 -11 5 -11 10 0 6 2 10 4 10 3 0 8 -4 11 -10z m-325 -30 c0 -5 -6
-12 -12 -16 -7 -4 -10 -4 -6 1 4 4 3 14 -4 22 -8 11 -7 12 6 7 9 -3 16 -10 16
-14z m6 -49 c0 -11 -4 -17 -8 -15 -4 3 -8 12 -8 20 0 8 4 14 8 14 4 0 8 -9 8
-19z m-16 -75 c0 -12 -5 -7 -19 24 -11 24 -11 24 3 6 9 -11 16 -24 16 -30z
m2220 1 c0 -2 -15 -16 -32 -33 l-33 -29 29 33 c28 30 36 37 36 29z m-70 -60
c0 -1 -28 -29 -62 -62 l-63 -60 60 63 c55 58 65 67 65 59z m-200 -187 c-41
-38 -70 -69 -63 -70 6 0 15 4 18 10 7 11 45 33 45 26 0 -3 -21 -20 -47 -37
-27 -18 -42 -26 -36 -18 7 9 11 18 8 20 -5 5 44 55 105 108 65 57 45 31 -30
-39z m-3300 40 c18 -12 2 -12 -25 0 -13 6 -15 9 -5 9 8 0 22 -4 30 -9z m105
-38 c-3 -3 -11 0 -18 7 -9 10 -8 11 6 5 10 -3 15 -9 12 -12z m3125 14 c0 -2
-8 -10 -17 -17 -16 -13 -17 -12 -4 4 13 16 21 21 21 13z m-3315 -26 c3 -5 2
-10 -4 -10 -5 0 -13 5 -16 10 -3 6 -2 10 4 10 5 0 13 -4 16 -10z m-530 -38
c-3 -3 -11 0 -18 7 -9 10 -8 11 6 5 10 -3 15 -9 12 -12z m102 -28 c-3 -3 -12
-4 -19 -1 -8 3 -5 6 6 6 11 1 17 -2 13 -5z m451 -11 c-10 -2 -26 -2 -35 0 -10
3 -2 5 17 5 19 0 27 -2 18 -5z m-95 -10 c-7 -2 -21 -2 -30 0 -10 3 -4 5 12 5
17 0 24 -2 18 -5z m3347 -16 c-8 -8 -42 -38 -76 -68 -56 -50 -55 -49 9 14 38
37 72 67 75 67 3 0 0 -6 -8 -13z m-3433 -83 c-3 -3 -12 -4 -19 -1 -8 3 -5 6 6
6 11 1 17 -2 13 -5z m-410 -50 c-3 -3 -12 -4 -19 -1 -8 3 -5 6 6 6 11 1 17 -2
13 -5z m3583 -98 c0 -2 -8 -10 -17 -17 -16 -13 -17 -12 -4 4 13 16 21 21 21
13z m-2004 -57 c3 -5 -2 -9 -10 -9 -9 0 -16 5 -16 10 0 6 -5 10 -11 10 -6 0
-9 -7 -5 -15 3 -8 1 -15 -4 -15 -6 0 -10 5 -10 10 0 6 -6 10 -14 10 -8 0 -17
4 -20 9 -3 4 7 6 22 3 l27 -5 -20 23 -20 22 38 -22 c20 -12 40 -26 43 -31z
m114 -4 c36 -3 68 -11 76 -20 14 -13 11 -15 -23 -17 -21 0 -53 -1 -72 0 -18 1
-41 -3 -50 -8 -9 -4 -32 -5 -51 0 l-35 7 45 8 c25 5 39 10 32 13 -6 2 -10 8
-6 13 3 5 0 9 -5 9 -6 0 -11 5 -11 10 0 7 6 7 20 0 11 -6 47 -13 80 -15z
m1815 -25 c-3 -5 -12 -10 -18 -10 -7 0 -6 4 3 10 19 12 23 12 15 0z m-1465
-26 c0 -2 -9 0 -20 6 -11 6 -20 13 -20 16 0 2 9 0 20 -6 11 -6 20 -13 20 -16z
m1440 3 c0 -2 -12 -14 -27 -28 l-28 -24 24 28 c23 25 31 32 31 24z m-1927 -14
c-7 -2 -19 -2 -25 0 -7 3 -2 5 12 5 14 0 19 -2 13 -5z m113 -2 c-9 -14 -56
-20 -56 -7 0 7 14 13 31 14 17 1 28 -2 25 -7z m-153 -18 c-7 -2 -19 -2 -25 0
-7 3 -2 5 12 5 14 0 19 -2 13 -5z m167 2 c0 -3 -10 -10 -22 -15 -21 -8 -19 -9
12 -10 19 -1 44 -6 55 -11 20 -9 -47 -4 -110 8 l-30 6 40 12 c48 15 55 17 55
10z m80 -10 c24 -14 24 -14 -15 -8 -46 7 -71 23 -34 23 13 -1 35 -7 49 -15z
m-195 -1 c13 -5 14 -8 3 -15 -19 -13 -28 -11 -28 6 0 17 2 18 25 9z m-1309
-16 c4 -6 10 -5 15 3 8 12 11 11 19 -1 7 -12 3 -18 -20 -27 -48 -21 -54 -20
-55 8 -1 26 28 38 41 17z m1277 -35 c-5 -13 -7 -13 -15 1 -5 9 -21 17 -36 17
l-27 1 30 7 c35 8 56 -4 48 -26z m-37 -17 c-1 -18 -7 -23 -29 -24 -33 -1 -32
21 1 26 12 2 20 8 17 13 -4 5 -2 9 3 9 6 0 9 -11 8 -24z m170 -9 c3 -3 -15 -4
-40 -3 -25 1 -46 -1 -46 -6 0 -4 -4 -8 -8 -8 -5 0 -9 6 -9 14 0 11 12 14 49
12 26 -1 51 -5 54 -9z m-123 -14 c-7 -2 -19 -2 -25 0 -7 3 -2 5 12 5 14 0 19
-2 13 -5z m-1323 -13 c0 -5 -4 -10 -10 -10 -5 0 -10 5 -10 10 0 6 5 10 10 10
6 0 10 -4 10 -10z m1173 -147 c-7 -2 -21 -2 -30 0 -10 3 -4 5 12 5 17 0 24 -2
18 -5z m2172 -31 c-19 -17 -127 -73 -121 -63 3 5 0 12 -6 14 -7 3 -4 6 7 6 11
1 43 12 70 25 56 27 63 30 50 18z m-2228 -18 c13 -4 20 -10 18 -15 -3 -4 12
-6 32 -4 31 4 34 3 13 -4 -35 -13 -102 -13 -120 0 -11 8 -8 9 15 5 28 -6 29
-5 11 9 -22 16 -10 20 31 9z m602 -10 c18 -9 30 -18 27 -21 -3 -3 -20 4 -38
16 -39 25 -34 27 11 5z m-564 -44 c17 -7 16 -9 -10 -10 -22 -2 -24 -4 -10 -7
11 -3 24 -9 30 -14 12 -12 -52 -1 -83 14 -22 10 -22 12 -5 18 24 10 54 9 78
-1z m595 -20 c8 -5 12 -12 9 -15 -8 -8 -39 5 -39 16 0 11 11 11 30 -1z m-665
-40 c3 -5 1 -10 -4 -10 -6 0 -11 5 -11 10 0 6 2 10 4 10 3 0 8 -4 11 -10z
m-1214 -70 c-22 -19 -41 -26 -41 -15 0 5 51 34 60 34 3 0 -6 -9 -19 -19z
m2007 -15 c-3 -3 -13 -2 -22 1 -14 5 -15 9 -4 15 13 8 36 -6 26 -16z m82 -50
c16 -19 0 -19 -26 0 -16 12 -16 14 -3 15 9 0 22 -7 29 -15z m1160 1 c0 -2 -7
-7 -16 -10 -8 -3 -12 -2 -9 4 6 10 25 14 25 6z m-1140 -42 c0 -2 -9 -4 -21 -4
-11 0 -18 4 -14 10 5 8 35 3 35 -6z m1035 6 c-28 -12 -37 -12 -30 0 3 6 16 10
28 9 21 0 21 -1 2 -9z m-1858 -6 c-3 -3 -12 -4 -19 -1 -8 3 -5 6 6 6 11 1 17
-2 13 -5z m1723 -4 c0 -5 -5 -10 -11 -10 -5 0 -7 5 -4 10 3 6 8 10 11 10 2 0
4 -4 4 -10z m-906 -29 c3 -5 -1 -15 -10 -22 -13 -10 -17 -10 -24 1 -6 9 -4 17
3 22 16 10 25 10 31 -1z m1021 -391 c10 -11 16 -20 13 -20 -3 0 -13 9 -23 20
-10 11 -16 20 -13 20 3 0 13 -9 23 -20z m-2865 -660 c0 -5 -4 -10 -10 -10 -5
0 -10 5 -10 10 0 6 5 10 10 10 6 0 10 -4 10 -10z m208 -105 c-6 -14 -15 -25
-20 -25 -11 0 -10 7 2 31 16 28 32 23 18 -6z m47 -45 c15 12 35 -2 40 -29 4
-24 42 -60 64 -61 22 0 9 -100 -15 -116 -11 -7 -25 -18 -31 -24 -9 -8 -13 -8
-13 0 0 7 -6 8 -19 0 -27 -14 -41 -13 -41 5 0 8 -6 12 -14 9 -8 -3 -12 -12 -9
-20 3 -9 -2 -14 -15 -14 -14 0 -18 6 -16 23 6 40 13 82 19 114 6 25 4 32 -11
36 -18 5 -18 5 1 12 15 4 20 14 19 33 -2 34 5 47 19 33 6 -6 15 -7 22 -1z"/>
<path d="M3365 4043 l-17 -28 23 22 c12 12 20 25 17 28 -3 3 -13 -7 -23 -22z"/>
<path d="M3323 4018 c-6 -7 -14 -24 -18 -37 -10 -32 13 -18 26 16 11 29 7 40
-8 21z"/>
<path d="M3297 3931 c-4 -17 -3 -21 5 -13 5 5 8 16 6 23 -3 8 -7 3 -11 -10z"/>
<path d="M3476 3718 c-20 -28 -21 -44 -2 -29 13 11 29 51 21 51 -2 0 -11 -10
-19 -22z"/>
<path d="M3530 3699 c0 -5 -4 -8 -9 -5 -14 9 -23 -26 -11 -38 8 -8 11 -7 8 4
-2 8 3 14 10 13 6 -2 12 6 12 17 0 11 -2 20 -5 20 -3 0 -5 -5 -5 -11z"/>
<path d="M3563 3675 c-9 -24 1 -27 15 -5 8 13 8 20 2 20 -6 0 -13 -7 -17 -15z"/>
<path d="M3290 3642 c0 -18 4 -32 9 -32 4 0 7 12 5 26 -4 38 -14 42 -14 6z"/>
<path d="M3537 3647 c-4 -10 -7 -28 -7 -40 1 -20 2 -20 11 -4 6 10 9 28 7 40
-3 20 -4 20 -11 4z"/>
<path d="M3462 3610 c0 -14 2 -19 5 -12 2 6 2 18 0 25 -3 6 -5 1 -5 -13z"/>
<path d="M3308 3454 c-5 -4 -8 -19 -8 -33 0 -18 3 -22 11 -14 6 6 9 21 7 33
-1 12 -6 18 -10 14z"/>
<path d="M3260 3418 c-1 -13 -3 -39 -6 -59 -6 -41 7 -57 26 -34 9 11 9 15 1
15 -9 0 -10 13 -6 44 5 28 3 46 -4 50 -7 5 -11 -2 -11 -16z"/>
<path d="M3295 3352 c5 -16 1 -28 -14 -41 -20 -17 -20 -20 -5 -50 8 -17 17
-31 19 -31 3 0 3 17 2 38 -1 25 2 36 11 35 17 -4 15 29 -4 53 -15 18 -15 18
-9 -4z"/>
<path d="M4635 3320 c-3 -5 -2 -10 4 -10 5 0 13 5 16 10 3 6 2 10 -4 10 -5 0
-13 -4 -16 -10z"/>
<path d="M3241 3274 c0 -11 3 -14 6 -6 3 7 2 16 -1 19 -3 4 -6 -2 -5 -13z"/>
<path d="M4540 3255 c-7 -9 -8 -15 -2 -15 5 0 12 7 16 15 3 8 4 15 2 15 -2 0
-9 -7 -16 -15z"/>
<path d="M3812 3168 c1 -20 -1 -40 -5 -44 -4 -4 -7 4 -8 17 -1 21 -2 20 -11
-8 -7 -20 -18 -33 -34 -36 -27 -5 -36 12 -29 51 4 23 2 21 -11 -8 -18 -38 -52
-72 -65 -64 -5 3 -6 -2 -3 -10 3 -9 1 -16 -5 -16 -6 0 -11 5 -11 10 0 17 -18
11 -23 -7 -4 -14 -5 -12 -6 5 -1 25 -11 28 -30 10 -11 -11 -12 -10 -7 0 6 10
1 11 -18 6 -17 -4 -26 -2 -26 6 0 6 -4 8 -10 5 -5 -3 -10 1 -10 9 0 9 -7 16
-15 16 -8 0 -15 5 -15 11 0 6 -9 1 -21 -12 -18 -21 -20 -21 -14 -4 3 11 2 16
-2 11 -4 -4 -9 -26 -10 -49 -5 -145 -12 -220 -22 -230 -14 -14 -14 -6 -1 27
13 34 5 33 -15 -1 l-16 -28 5 40 c3 22 3 34 0 27 -3 -7 -15 -17 -26 -23 -19
-10 -20 -8 -17 34 3 34 1 43 -8 36 -7 -7 -14 -6 -18 1 -3 5 -3 10 1 10 4 0 -5
9 -19 20 -14 11 -30 20 -35 20 -5 0 -12 6 -15 14 -7 18 -59 43 -83 41 -22 -3
-51 -12 -76 -26 -10 -5 -25 -9 -34 -9 -21 0 -74 -54 -74 -76 0 -9 -3 -15 -6
-11 -4 3 -15 -4 -25 -16 -19 -22 -19 -22 -34 -3 -12 16 -15 17 -15 4 0 -9 7
-18 15 -22 8 -3 15 -17 15 -33 l-1 -28 -13 25 c-13 23 -14 21 -9 -25 3 -35 1
-46 -5 -36 -6 8 -8 21 -4 29 3 10 0 13 -9 10 -8 -3 -19 2 -26 11 -11 14 -12
13 -13 -5 0 -12 7 -27 15 -34 23 -19 18 -29 -12 -24 l-28 4 24 -20 c12 -11 27
-17 32 -14 5 3 6 -2 3 -11 -4 -9 -3 -15 2 -14 19 3 32 -2 37 -15 7 -17 -49
-16 -80 2 -12 6 -28 10 -35 7 -8 -3 -37 12 -65 35 -28 22 -54 40 -58 40 -4 0
-21 10 -38 22 -24 17 -28 18 -18 4 8 -9 28 -24 45 -33 17 -9 49 -32 71 -52 22
-20 56 -49 75 -64 19 -16 25 -24 13 -17 -15 7 -23 7 -23 0 0 -5 6 -10 13 -11
21 -2 -36 -17 -73 -19 -31 -2 -29 -3 21 -14 30 -6 68 -21 85 -34 16 -12 21
-19 12 -16 -11 4 -18 1 -18 -6 0 -8 -10 -9 -31 -5 -17 4 -29 3 -26 -1 6 -10
-74 -10 -98 0 -8 3 -22 3 -30 0 -22 -9 4 -32 41 -36 20 -2 28 -8 26 -18 -2 -8
0 -12 4 -8 4 4 13 3 21 -3 9 -9 13 -8 13 0 0 6 -4 11 -10 11 -5 0 -10 5 -10
11 0 6 9 8 21 4 16 -6 20 -4 13 6 -6 12 -5 12 8 1 9 -8 37 -14 62 -15 25 -1
46 -6 46 -11 0 -5 6 -4 13 1 6 6 25 10 40 9 16 -1 31 2 33 6 3 4 11 5 19 1 8
-3 15 0 15 6 0 16 30 14 36 -3 3 -8 19 -20 35 -26 16 -7 29 -20 29 -29 0 -14
2 -14 10 -1 8 12 12 12 18 3 5 -9 12 -1 21 22 7 19 17 35 24 35 8 0 8 -3 -1
-12 -7 -7 -12 -21 -11 -32 0 -12 3 -15 6 -8 2 6 9 10 14 6 5 -3 9 1 9 9 0 8 7
20 15 27 13 11 14 10 9 -4 -3 -9 -1 -16 5 -16 6 0 11 7 11 15 0 8 3 14 8 12 4
-1 21 10 37 25 33 31 42 30 25 -1 -13 -25 -7 -26 27 -4 14 10 32 18 39 19 8 1
26 12 41 24 17 13 29 17 31 10 3 -7 11 -5 23 6 10 9 19 14 19 10 0 -4 14 3 32
15 17 13 28 18 25 12 -4 -7 -3 -14 2 -17 5 -3 11 4 14 16 4 12 9 19 13 15 4
-4 13 1 21 11 11 15 12 14 3 -10 -13 -38 -6 -35 20 8 12 19 25 33 28 30 2 -3
-1 -12 -8 -20 -6 -9 -10 -21 -8 -27 2 -7 14 3 26 22 12 19 22 28 22 20 0 -11
4 -9 15 5 17 22 20 12 4 -18 -6 -11 -8 -22 -6 -25 3 -3 19 19 36 49 34 58 39
60 16 4 l-16 -37 27 18 27 17 -13 -24 c-8 -17 1 -11 30 18 43 44 60 50 41 13
-21 -38 57 22 132 102 59 62 62 64 25 17 -24 -30 -58 -71 -76 -90 -18 -19 -30
-40 -28 -45 2 -6 -2 -22 -9 -35 l-13 -24 2 29 c1 17 5 37 10 45 4 8 -8 -1 -27
-22 -20 -20 -38 -34 -40 -31 -3 3 -10 -5 -16 -16 -10 -18 -9 -20 6 -14 9 4 27
18 40 32 12 14 23 21 23 14 0 -6 -4 -15 -10 -18 -16 -10 -11 -23 8 -20 9 2 18
4 20 5 1 2 7 3 12 4 6 0 15 8 21 16 8 11 9 9 3 -10 -3 -14 -11 -31 -16 -37
-16 -21 2 -15 36 10 49 37 64 43 27 10 -19 -16 -32 -35 -30 -42 3 -8 20 3 48
28 23 22 41 43 39 48 -2 4 6 18 19 30 13 12 23 20 23 18 0 -3 -24 -42 -53 -88
-115 -178 -84 -141 85 103 182 264 207 303 201 312 -2 5 -18 -9 -34 -32 -32
-44 -51 -55 -25 -15 9 14 24 37 33 53 l17 27 -30 -25 c-16 -14 -39 -36 -52
-50 l-23 -25 20 42 c32 65 0 50 -86 -43 l-74 -79 56 70 c31 39 66 81 78 94 12
14 16 21 8 16 -11 -6 -13 -4 -8 9 6 15 5 15 -17 -1 -13 -10 -31 -29 -39 -42
l-15 -24 -7 40 c-7 45 -30 53 -53 18 -12 -17 -13 -18 -8 -2 4 11 9 31 12 45 4
22 3 24 -5 10 -6 -9 -19 -15 -29 -14 -9 2 -21 -2 -25 -8 -6 -7 -7 -6 -4 4 2 8
10 14 16 13 6 -2 11 3 11 10 0 16 -36 15 -52 -1 -17 -17 -29 -15 -22 3 10 26
-16 16 -28 -10 -13 -29 -26 -32 -35 -9 -5 14 -8 12 -19 -7 -12 -22 -13 -18 -8
31 l4 55 -14 -35 c-13 -32 -15 -33 -16 -10 -1 14 -6 34 -11 45 -7 16 -8 12 -7
-17z m-355 -315 c2 -6 -2 -13 -9 -16 -9 -3 -14 3 -14 14 0 20 17 21 23 2z m3
-43 c-6 -11 -9 -24 -6 -29 3 -4 -1 -17 -9 -27 -8 -10 -15 -14 -15 -8 0 5 5 15
12 22 9 9 9 12 -1 12 -7 0 -9 5 -5 12 4 7 3 8 -5 4 -6 -4 -9 -11 -6 -16 3 -5
2 -11 -3 -14 -4 -2 -9 5 -9 16 -1 12 6 22 18 25 10 3 19 9 19 14 0 5 5 9 10 9
7 0 7 -7 0 -20z m-79 -79 c-6 -11 -21 -26 -32 -32 -18 -9 -17 -5 7 25 30 37
43 41 25 7z m-556 -21 c3 -5 2 -10 -4 -10 -5 0 -13 5 -16 10 -3 6 -2 10 4 10
5 0 13 -4 16 -10z m611 -7 c-2 -3 -6 -3 -9 -1 -3 2 -15 -6 -28 -17 l-24 -20
18 21 c9 11 24 21 32 21 8 0 13 -2 11 -4z m-536 -23 c6 -11 8 -20 6 -20 -3 0
-10 9 -16 20 -6 11 -8 20 -6 20 3 0 10 -9 16 -20z m0 -60 c-8 -5 -28 -9 -45
-9 l-30 1 30 8 c17 4 37 8 45 9 13 1 13 0 0 -9z"/>
<path d="M4005 3170 c-3 -5 -1 -10 4 -10 6 0 11 5 11 10 0 6 -2 10 -4 10 -3 0
-8 -4 -11 -10z"/>
<path d="M4466 3112 c-22 -27 -24 -32 -7 -17 20 17 47 55 39 55 -2 0 -16 -17
-32 -38z"/>
<path d="M3398 3110 c-3 -8 -4 -26 -2 -40 1 -14 3 -36 4 -50 2 -19 4 -15 10
14 8 41 -2 103 -12 76z"/>
<path d="M4415 3039 c-4 -6 -5 -12 -2 -15 2 -3 7 2 10 11 7 17 1 20 -8 4z"/>
<path d="M4515 3030 c-10 -11 -14 -20 -8 -20 5 0 18 9 28 20 10 11 14 20 8 20
-5 0 -18 -9 -28 -20z"/>
<path d="M4374 2988 l-19 -23 23 19 c21 18 27 26 19 26 -2 0 -12 -10 -23 -22z"/>
<path d="M2772 2805 c15 -16 30 -26 33 -23 4 3 -9 16 -27 28 l-33 23 27 -28z"/>
<path d="M2540 2750 c35 -24 54 -31 30 -11 -14 11 -29 21 -35 21 -5 0 -3 -5 5
-10z"/>
<path d="M2760 2695 c0 -2 10 -10 23 -16 20 -11 21 -11 8 4 -13 16 -31 23 -31
12z"/>
<path d="M3914 2498 l-19 -23 23 19 c21 18 27 26 19 26 -2 0 -12 -10 -23 -22z"/>
<path d="M3539 2043 c-13 -16 -12 -17 4 -4 16 13 21 21 13 21 -2 0 -10 -8 -17
-17z"/>
<path d="M3616 2003 c-6 -14 -5 -15 5 -6 7 7 10 15 7 18 -3 3 -9 -2 -12 -12z"/>
<path d="M3400 1970 c0 -5 5 -10 10 -10 6 0 10 5 10 10 0 6 -4 10 -10 10 -5 0
-10 -4 -10 -10z"/>
<path d="M3606 1953 c-6 -14 -5 -15 5 -6 7 7 10 15 7 18 -3 3 -9 -2 -12 -12z"/>
<path d="M3630 1919 c0 -5 5 -7 10 -4 6 3 10 8 10 11 0 2 -4 4 -10 4 -5 0 -10
-5 -10 -11z"/>
<path d="M3845 1910 c-16 -7 -17 -9 -3 -9 9 -1 20 4 23 9 7 11 7 11 -20 0z"/>
<path d="M3936 4985 c-4 -12 2 -14 32 -10 l37 6 -25 -20 c-21 -17 -23 -22 -12
-45 13 -30 26 -32 66 -11 38 20 43 19 21 -5 -25 -28 -7 -47 26 -29 22 11 23
11 10 -4 -7 -10 -10 -17 -6 -17 5 0 0 -10 -11 -22 -10 -12 -13 -18 -7 -14 7 4
30 4 50 0 35 -7 36 -8 15 -17 -12 -6 -22 -14 -22 -18 0 -8 108 27 125 41 6 5
17 5 24 1 10 -7 8 -12 -8 -23 -18 -13 -19 -16 -6 -21 8 -4 27 -2 41 3 39 15
54 12 54 -10 0 -20 1 -20 38 -5 20 9 58 37 85 63 41 40 47 44 47 24 0 -17 6
-22 27 -22 l27 0 -35 -37 c-36 -38 -26 -36 30 6 24 18 36 22 39 13 6 -18 32
-15 70 8 39 24 42 24 42 5 0 -14 14 -19 48 -18 19 1 14 -15 -8 -29 -11 -7 -20
-17 -20 -22 0 -5 -8 -18 -17 -29 -17 -20 -17 -20 0 -14 40 15 37 -7 -7 -52
-55 -55 -52 -81 7 -56 41 17 61 19 52 6 -3 -5 -19 -13 -36 -16 -17 -4 -45 -17
-63 -29 -18 -11 -55 -32 -84 -45 -31 -15 -48 -27 -41 -32 7 -4 -8 -15 -36 -28
-54 -24 -56 -36 -4 -21 51 15 58 11 19 -10 -19 -11 -31 -19 -26 -20 5 0 -1
-11 -13 -24 -15 -16 -19 -26 -12 -31 6 -3 9 -10 6 -15 -3 -5 5 -17 18 -27 36
-28 41 -43 21 -59 -18 -14 -18 -15 4 -9 12 4 22 2 22 -3 0 -5 11 -7 26 -4 24
4 104 -24 104 -38 0 -3 -5 -11 -12 -18 -6 -6 -13 -19 -14 -28 -2 -12 3 -14 22
-10 19 5 24 3 24 -13 0 -12 -9 -23 -22 -27 l-23 -7 24 -9 c17 -6 31 -4 47 7
31 20 41 2 14 -27 -18 -20 -19 -23 -4 -31 11 -6 19 -5 23 2 8 12 102 18 119 7
8 -4 10 -2 6 8 -5 14 32 43 43 33 2 -3 -4 -8 -15 -11 -13 -5 -19 -15 -18 -35
1 -20 5 -27 15 -23 7 3 -1 -15 -18 -39 -18 -24 -27 -45 -22 -47 6 -2 9 -8 5
-13 -7 -13 14 -11 59 5 33 12 36 12 25 -1 -18 -22 -19 -46 -2 -39 22 8 17 -3
-13 -29 -24 -20 -26 -24 -11 -30 9 -4 25 -2 37 4 26 14 34 14 25 -1 -4 -7 -3
-8 4 -4 8 5 12 170 12 591 l0 585 -529 0 c-459 0 -530 -2 -535 -15z m649 -525
c-3 -5 -12 -10 -18 -10 -7 0 -6 4 3 10 19 12 23 12 15 0z"/>
<path d="M2116 4397 c3 -10 9 -15 12 -12 3 3 0 11 -7 18 -10 9 -11 8 -5 -6z"/>
<path d="M4603 4193 c-4 -10 -11 -21 -17 -25 -7 -5 -5 -8 4 -7 19 0 70 28 52
29 -7 0 -10 5 -7 10 3 6 -1 10 -10 10 -8 0 -19 -8 -22 -17z"/>
<path d="M2110 4184 c0 -7 7 -17 15 -24 8 -7 15 -18 15 -26 0 -15 38 -39 48
-29 3 3 -13 25 -36 48 -23 23 -42 37 -42 31z"/>
<path d="M1622 3934 c-16 -17 -15 -21 3 -28 16 -6 45 2 45 13 0 3 -8 11 -18
17 -13 9 -20 8 -30 -2z"/>
<path d="M4987 3735 c-4 -8 -2 -17 3 -20 6 -4 10 3 10 14 0 25 -6 27 -13 6z"/>
<path d="M4955 3690 c-3 -5 -1 -10 4 -10 6 0 11 5 11 10 0 6 -2 10 -4 10 -3 0
-8 -4 -11 -10z"/>
<path d="M1320 3430 c0 -13 18 -22 24 -11 3 5 -1 11 -9 15 -8 3 -15 1 -15 -4z"/>
<path d="M862 3285 c4 -4 3 -14 -4 -22 -8 -11 -7 -12 6 -7 19 7 21 20 4 30 -7
4 -10 4 -6 -1z"/>
<path d="M1290 3286 c0 -2 7 -9 15 -16 9 -7 15 -8 15 -2 0 5 -7 12 -15 16 -8
3 -15 4 -15 2z"/>
<path d="M1295 3251 c6 -11 4 -13 -8 -8 -10 3 -17 2 -17 -2 0 -7 23 -21 35
-21 6 0 -1 30 -10 37 -4 5 -5 2 0 -6z"/>
<path d="M878 3243 c7 -3 16 -2 19 1 4 3 -2 6 -13 5 -11 0 -14 -3 -6 -6z"/>
<path d="M1190 3160 c8 -5 22 -9 30 -9 10 0 8 3 -5 9 -27 12 -43 12 -25 0z"/>
<path d="M1150 3115 c0 -9 6 -12 15 -9 8 4 15 7 15 9 0 2 -7 5 -15 9 -9 3 -15
0 -15 -9z"/>
<path d="M1080 2993 c0 -10 54 -23 62 -15 6 6 -4 11 -26 14 -20 2 -36 3 -36 1z"/>
<path d="M1005 2900 c28 -12 47 -12 40 0 -3 6 -18 10 -33 9 -24 0 -25 -1 -7
-9z"/>
<path d="M878 2703 c6 -2 18 -2 25 0 6 3 1 5 -13 5 -14 0 -19 -2 -12 -5z"/>
<path d="M850 2682 c0 -5 14 -9 30 -9 17 0 30 4 30 9 0 4 -13 8 -30 8 -16 0
-30 -4 -30 -8z"/>
</g>
</svg>
